{
  "accessors": [
    {
      "bufferView": 2,
      "componentType": 5126,
      "count": 38651,
      "max": [
        0.9999997615814209,
        0.9999998807907104,
        0.47139668464660645
      ],
      "min": [
        -0.9999997615814209,
        -1.7565051317214966,
        -1.578373908996582
      ],
      "type": "VEC3"
    },
    {
      "bufferView": 2,
      "byteOffset": 463812,
      "componentType": 5126,
      "count": 38651,
      "max": [
        1.0,
        1.0,
        1.0
      ],
      "min": [
        -1.0,
        -1.0,
        -1.0
      ],
      "type": "VEC3"
    },
    {
      "bufferView": 3,
      "componentType": 5126,
      "count": 38651,
      "max": [
        1.0,
        1.0,
        1.0,
        1.0
      ],
      "min": [
        -1.0,
        -1.0,
        -1.0,
        -1.0
      ],
      "type": "VEC4"
    },
    {
      "bufferView": 1,
      "componentType": 5126,
      "count": 38651,
      "max": [
        0.9980908036231995,
        0.998028039932251
      ],
      "min": [
        0.0018455880926921964,
        0.0017509509343653917
      ],
      "type": "VEC2"
    },
    {
      "bufferView": 1,
      "byteOffset": 309208,
      "componentType": 5126,
      "count": 38651,
      "max": [
        0.9980908036231995,
        0.998028039932251
      ],
      "min": [
        0.0018455880926921964,
        0.0017509509343653917
      ],
      "type": "VEC2"
    },
    {
      "bufferView": 1,
      "byteOffset": 618416,
      "componentType": 5126,
      "count": 38651,
      "max": [
        0.9980908036231995,
        0.998028039932251
      ],
      "min": [
        0.0018455880926921964,
        0.0017509509343653917
      ],
      "type": "VEC2"
    },
    {
      "bufferView": 1,
      "byteOffset": 927624,
      "componentType": 5126,
      "count": 38651,
      "max": [
        0.9980908036231995,
        0.998028039932251
      ],
      "min": [
        0.0018455880926921964,
        0.0017509509343653917
      ],
      "type": "VEC2"
    },
    {
      "bufferView": 0,
      "componentType": 5125,
      "count": 111876,
      "type": "SCALAR"
    }
  ],
  "asset": {
    "extras": {
      "author": "JLRIN (https://sketchfab.com/JLRIN)",
      "license": "CC-BY-4.0 (http://creativecommons.org/licenses/by/4.0/)",
      "source": "https://sketchfab.com/3d-models/shader-ball-jl-01-9ecc1d8ddb5b4059a80d0bd925e3dd3b",
      "title": "Shader Ball JL 01"
    },
    "generator": "Sketchfab-14.35.0",
    "version": "2.0"
  },
  "bufferViews": [
    {
      "buffer": 0,
      "byteLength": 447504,
      "name": "floatBufferViews",
      "target": 34963
    },
    {
      "buffer": 0,
      "byteLength": 1236832,
      "byteOffset": 447504,
      "byteStride": 8,
      "name": "floatBufferViews",
      "target": 34962
    },
    {
      "buffer": 0,
      "byteLength": 927624,
      "byteOffset": 1684336,
      "byteStride": 12,
      "name": "floatBufferViews",
      "target": 34962
    },
    {
      "buffer": 0,
      "byteLength": 618416,
      "byteOffset": 2611960,
      "byteStride": 16,
      "name": "floatBufferViews",
      "target": 34962
    }
  ],
  "buffers": [
    {
      "byteLength": 3230376,
      "uri": "gltf.bin"
    }
  ],
  "images": [
    {
      "uri": "textures/Shader_Ball_JL_01_baseColor.jpeg"
    },
    {
      "uri": "textures/Shader_Ball_JL_01_metallicRoughness.png"
    },
    {
      "uri": "textures/Shader_Ball_JL_01_normal.jpeg"
    }
  ],
  "materials": [
    {
      "doubleSided": true,
      "name": "Shader_Ball_JL_01",
      "normalTexture": {
        "index": 2,
        "texCoord": 2
      },
      "occlusionTexture": {
        "index": 1
      },
      "pbrMetallicRoughness": {
        "baseColorTexture": {
          "index": 0
        },
        "metallicRoughnessTexture": {
          "index": 1,
          "texCoord": 1
        }
      }
    }
  ],
  "meshes": [
    {
      "name": "Object_0",
      "primitives": [
        {
          "attributes": {
            "NORMAL": 1,
            "POSITION": 0,
            "TANGENT": 2,
            "TEXCOORD_0": 3,
            "TEXCOORD_1": 4,
            "TEXCOORD_2": 5,
            "TEXCOORD_3": 6
          },
          "indices": 7,
          "material": 0,
          "mode": 4
        }
      ]
    }
  ],
  "nodes": [
    {
      "children": [
        1
      ],
      "matrix": [
        1.0,
        0.0,
        0.0,
        0.0,
        0.0,
        2.220446049250313e-16,
        -1.0,
        0.0,
        0.0,
        1.0,
        2.220446049250313e-16,
        0.0,
        0.0,
        0.0,
        0.0,
        1.0
      ],
      "name": "Sketchfab_model"
    },
    {
      "children": [
        2
      ],
      "name": "root"
    },
    {
      "children": [
        3
      ],
      "matrix": [
        1.0,
        0.0,
        0.0,
        0.0,
        0.0,
        2.220446049250313e-16,
        1.0,
        0.0,
        0.0,
        -1.0,
        2.220446049250313e-16,
        0.0,
        0.0,
        0.0,
        0.0,
        1.0
      ],
      "name": "GLTF_SceneRootNode"
    },
    {
      "children": [
        4
      ],
      "matrix": [
        1.0,
        0.0,
        -0.0,
        0.0,
        -0.0,
        0.8660253441153969,
        -0.5000001033497976,
        0.0,
        0.0,
        0.5000001033497976,
        0.8660253441153969,
        0.0,
        0.0,
        -0.25,
        0.0,
        1.0
      ],
      "name": "Shader Ball JL 01_0"
    },
    {
      "mesh": 0,
      "name": "Object_4"
    }
  ],
  "samplers": [
    {
      "magFilter": 9729,
      "minFilter": 9987,
      "wrapS": 10497,
      "wrapT": 10497
    }
  ],
  "scene": 0,
  "scenes": [
    {
      "name": "Sketchfab_Scene",
      "nodes": [
        0
      ]
    }
  ],
  "textures": [
    {
      "sampler": 0,
      "source": 0
    },
    {
      "sampler": 0,
      "source": 1
    },
    {
      "sampler": 0,
      "source": 2
    }
  ]
}
